<?xml version="1.0" standalone="no"?>
<!DOCTYPE svg PUBLIC "-//W3C//DTD SVG 20010904//EN"
 "http://www.w3.org/TR/2001/REC-SVG-20010904/DTD/svg10.dtd">
<svg version="1.0" xmlns="http://www.w3.org/2000/svg"
 width="128.000000pt" height="128.000000pt" viewBox="0 0 128.000000 128.000000"
 preserveAspectRatio="xMidYMid meet">
<metadata>
Created by potrace 1.11, written by Peter Selinger 2001-2013
</metadata>
<g transform="translate(0.000000,128.000000) scale(0.100000,-0.100000)"
fill="#000000" stroke="none">
<path d="M358 1075 c-32 -22 -48 -25 -120 -25 -93 -1 -116 -10 -153 -60 -59
-81 -87 -214 -81 -387 5 -126 21 -197 64 -276 37 -70 72 -87 171 -87 71 0 87
-3 119 -25 l37 -25 368 0 369 0 38 38 c147 148 143 711 -7 842 l-34 30 -367 0
-367 0 -37 -25z m156 -56 c-54 -105 -73 -217 -69 -404 3 -157 21 -249 66 -336
l19 -39 -63 0 c-53 0 -67 4 -85 23 -106 113 -127 530 -35 712 32 63 51 75 120
75 l64 0 -17 -31z m226 23 c0 -5 -6 -17 -14 -27 -12 -16 -27 -20 -85 -20 -76
-1 -90 10 -49 39 24 17 148 23 148 8z m245 -34 c-89 -160 -92 -534 -6 -710
l28 -58 -93 0 -93 0 -28 35 c-24 28 -45 78 -69 164 -22 75 -21 293 1 403 18
92 36 136 71 177 25 31 27 31 119 31 l94 0 -24 -42z m142 27 c71 -50 122 -327
94 -515 -17 -116 -20 -128 -51 -196 -36 -81 -67 -99 -106 -63 -29 27 -49 70
-69 149 -23 90 -26 120 -26 240 0 157 27 286 74 355 34 49 49 55 84 30z m-853
-109 c-53 -169 -49 -426 10 -593 l15 -43 -69 0 c-64 0 -70 2 -94 31 -58 69
-88 199 -82 359 4 127 32 229 76 283 31 36 33 37 100 37 l68 0 -24 -74z m413
11 c3 -3 2 -19 -2 -36 l-7 -31 -79 0 c-57 0 -79 4 -79 13 0 32 14 56 34 59 31
4 127 1 133 -5z m-25 -122 c3 -3 2 -20 -1 -38 l-7 -32 -77 0 -77 0 0 31 c0 17
3 34 7 37 8 8 147 9 155 2z m-15 -124 c8 0 11 -10 9 -23 -3 -13 -5 -29 -5 -35
-1 -9 -24 -13 -81 -13 l-80 0 0 34 c0 19 5 36 11 38 10 3 110 3 146 -1z m13
-159 l0 -37 -74 0 c-41 0 -77 2 -80 5 -3 3 -7 20 -11 38 l-5 32 85 0 85 0 0
-38z m11 -91 c3 -1 6 -7 6 -13 0 -7 3 -27 7 -44 l7 -31 -79 0 -80 1 -12 39
c-8 27 -8 42 -1 46 8 5 125 7 152 2z m58 -167 c6 -14 11 -27 11 -29 0 -3 -29
-5 -65 -5 -58 0 -69 3 -93 27 l-27 28 29 5 c16 3 52 3 81 2 44 -3 54 -7 64
-28z"/>
<path d="M1073 987 c-26 -11 -57 -81 -71 -157 -16 -86 -12 -324 7 -401 46
-184 140 -176 182 16 19 88 16 333 -5 419 -25 105 -63 146 -113 123z m56 -108
c41 -136 28 -456 -21 -517 -48 -59 -89 308 -52 470 27 121 47 134 73 47z"/>
</g>
</svg>
