<svg xmlns="http://www.w3.org/2000/svg" width="107" height="23" fill="none" viewBox="0 0 107 23">
	<path fill="#C00" d="M17.464 20.762c-4.957 0-9.014-4.13-9.014-9.262 0-5.133 4.019-9.262 9.014-9.262 1.765 0 3.38.502 4.77 1.39l-4.77 7.872 8.976-5.325c-.976-1.583-2.366-2.972-4.056-4.014C20.244.811 17.239 0 13.934 0 9.2 0 5.033 1.775 2.742 4.4 1.014 6.366 0 8.836 0 11.5c0 2.663 1.014 5.133 2.742 7.1C5.07 21.264 9.164 23 13.783 23c4.658 0 8.751-1.775 11.042-4.4.113-.154.263-.308.376-.424l-.338-1.35c-1.615 2.354-4.32 3.936-7.399 3.936zM47.284 22.421L43.53 7.95c-.601-2.316-2.667-4.052-5.146-4.052-.638 0-1.24.115-1.802.347l-8.113 3.049h8.338l1.427 5.48c-1.427-1.235-3.23-1.969-5.22-1.969-3.906 0-7.099 2.702-7.099 6.02 0 3.32 3.193 6.02 7.099 6.02 2.816 0 5.333-1.427 6.873-3.588l.826 3.164h6.572zm-11.53-2.238c-1.802 0-3.267-1.505-3.267-3.357 0-1.853 1.465-3.358 3.267-3.358 1.803 0 3.268 1.505 3.268 3.358 0 1.852-1.465 3.357-3.268 3.357zM62.645 3.936c-.488 0-.976.116-1.39.309l-5.22 2.508c-.263-1.582-1.615-2.817-3.23-2.817-.488 0-.976.116-1.39.309l-6.384 3.049h4.47V22.42h6.534V8.953c0-.926.751-1.698 1.653-1.698.901 0 1.652.772 1.652 1.698v13.468h6.535V7.294c.038-1.853-1.427-3.358-3.23-3.358zM103.733 3.936c-.489 0-.977.116-1.39.309l-5.22 2.508c-.263-1.582-1.616-2.817-3.23-2.817-.489 0-.977.116-1.39.309l-6.385 3.049h4.47V22.42h6.535V8.991c0-.926.75-1.697 1.652-1.697.901 0 1.653.771 1.653 1.698V22.46h6.534V7.294c.038-1.853-1.427-3.358-3.229-3.358z"/>
	<path fill="#C00" d="M87.207 13.468c0 5.248-4.168 9.532-9.276 9.532s-9.277-4.284-9.277-9.532 4.17-9.532 9.277-9.532c5.145 0 9.276 4.245 9.276 9.532zm-8.9-6.637a2.094 2.094 0 0 0-2.517-1.505c-1.089.308-1.728 1.466-1.465 2.585l3.193 12.195a2.094 2.094 0 0 0 2.516 1.505c1.09-.309 1.728-1.467 1.465-2.586L78.307 6.831z"/>
</svg>
