<svg xmlns="http://www.w3.org/2000/svg" width="132" height="35" fill="none" viewBox="0 0 132 35">
	<path fill="#fff" d="M44.09.35c2.24 0 4.595.115 6.716.457 4.712.57 7.304 2.51 8.01 7.872.354 2.739.354 6.504.354 8.672 0 2.167 0 5.933-.354 8.67-.706 5.363-3.298 7.303-8.01 7.873-2.12.228-4.477.457-6.715.457-2.239 0-4.595-.114-6.715-.457-4.712-.57-7.304-2.51-8.01-7.872-.354-2.738-.354-6.504-.354-8.671 0-2.168 0-5.933.353-8.672.59-5.362 3.299-7.302 8.01-7.872 2.121-.342 4.477-.456 6.716-.456zm-5.418 4.336c-2.239.228-4.006 1.826-4.241 3.993-.118 2.054-.354 5.363-.354 8.672 0 3.308.236 6.617.354 8.67.235 2.168 2.002 3.766 4.24 3.994 1.297.114 3.064.228 5.42.228s4.24-.114 5.419-.228c2.238-.228 4.005-1.826 4.24-3.993.119-2.054.354-5.363.354-8.671 0-3.31-.117-6.618-.353-8.672-.236-2.167-2.003-3.765-4.241-3.993a60.545 60.545 0 0 0-5.42-.228c-2.355 0-4.24.114-5.418.228zM5.686 14.955H24.3v3.993H5.686c0 2.739 0 5.477.236 7.188.353 2.168 2.002 3.651 4.24 3.88a60.54 60.54 0 0 0 5.42.228c2.356 0 7.54-.114 8.953-.229v3.88c-2.356.228-6.95.228-9.071.228-2.238 0-4.477 0-6.597-.228-4.712-.57-7.304-3.195-7.775-7.645-.236-2.852-.354-6.731-.354-8.899 0-2.168 0-5.933.354-8.671.824-5.362 3.534-7.416 7.893-7.758 2.12-.229 4.476-.229 6.597-.229 2.238 0 6.715.114 8.953.229v3.993c-1.296-.114-6.597-.342-8.953-.342-2.356 0-4.123-.115-5.42 0-2.238.228-4.005 1.825-4.24 3.993-.118 1.597-.118 3.879-.236 6.39zM88.032 1.034c-2.12-.228-7.775-.456-9.895-.456-2.003 0-4.477 0-6.715.228-4.713.57-7.893 3.309-8.011 9.128-.118 6.845 4.005 8.785 8.01 8.9 3.064.113 3.3.113 6.951.227 4.359.114 5.89 1.94 5.89 5.363-.117 3.423-2.12 5.02-4.358 5.248a60.545 60.545 0 0 1-5.42.228c-2.355 0-8.481-.57-10.602-.684v4.221c2.003.343 8.364.57 10.603.57 2.238 0 4.594-.113 6.715-.456 4.712-.57 8.128-3.08 8.128-9.013 0-6.503-2.71-9.242-9.66-9.47-3.063-.114-2.945-.114-6.715-.228-2.12-.114-4.594-1.255-4.594-4.906.118-3.651 2.002-4.906 4.476-5.134a57.538 57.538 0 0 1 5.302-.229c2.474 0 8.717.457 9.895.57V1.036zM107.47 1.035c2.474-.342 6.126-.684 9.542-.684 5.066 0 8.365.912 10.603 2.852 1.649 1.37 2.827 3.65 2.827 6.275 0 4.336-3.18 7.302-6.597 8.329v.114c2.592.913 4.241 3.309 5.066 6.39 1.178 4.563 2.12 7.872 2.827 9.24h-5.065c-.59-.912-1.414-3.65-2.357-7.758-1.06-4.45-2.945-6.16-7.068-6.275h-4.83v13.92h-4.83V1.035h-.118zm4.948 14.832h5.183c4.948 0 8.011-2.396 8.011-5.933 0-4.335-3.534-5.932-8.246-5.932-2.592 0-4.241.228-4.948.456v11.41z"/>
</svg>
