<svg xmlns="http://www.w3.org/2000/svg" width="9" height="14" fill="none" viewBox="0 0 9 14">
	<path d="M6.845 1.333l-1.42-.003c-1.597 0-2.628 1.104-2.628 2.811v1.297H1.37a.228.228 0 0 0-.224.232v1.878c0 .128.1.233.224.233h1.428v4.739c0 .128.1.232.223.232h1.864a.228.228 0 0 0 .223-.232V7.78h1.67A.229.229 0 0 0 7 7.549l.001-1.878a.238.238 0 0 0-.066-.165.219.219 0 0 0-.158-.067h-1.67v-1.1c0-.527.12-.795.78-.795l.957-.001a.228.228 0 0 0 .224-.233V1.566c0-.129-.1-.233-.223-.233z" clip-rule="evenodd"/>
</svg>
