<svg xmlns="http://www.w3.org/2000/svg" width="384" height="408" fill="none" viewBox="0 0 384 408">
	<path fill="#C00" d="M69.219 283.589l.435 1.015.35.813c29.948 68.752 97.41 109.969 168.245 109.897v-2.365c-70.222.124-137.131-40.902-166.506-109.364-30.64-72.295-10.5-153.714 44.27-204.17l-1.712-1.657C59.175 128.687 38.832 210.56 69.219 283.589z"/>
	<path fill="#C00" d="M80.59 278.692l.435 1.015.349.813c33.032 75.745 114.976 115.635 193.168 98.439l-.65-2.214c-77.45 17.012-158.48-22.783-190.778-98.057-36.12-85.303 3.684-184.288 88.82-221.074l.203-.088-.959-2.235-.203.088C84.824 92.603 44.527 192.402 80.589 278.692z"/>
	<path fill="#C00" d="M91.902 273.94l.349.812.436 1.016c34.723 79.525 127.449 116.497 207.48 82.391l-.959-2.235c-79.306 33.554-170.9-3.304-204.869-82.191-33.359-79.15 3.49-170.724 82.331-204.8l.203-.087-.958-2.235-.203.087C96 101.27 58.6 193.803 91.902 273.94z"/>
	<path fill="#C00" d="M104.31 267.441l-.329-.8c-28.835-72.645 6.012-155.569 78.545-185.524l.2-.083.905 2.2-.2.082c-71.534 29.543-105.829 111.536-76.923 183.217 18.18 44.192 56.403 74.177 99.878 83.759l-.361 2.224c-43.871-9.726-82.778-39.917-101.386-84.275l-.329-.8zM319.374 326.238l.646-.508c.324-.254-2.039-1.273-2.039-1.273-27.305 21.421-60.401 30.503-92.541 28.051l-.084 2.094c32.409 2.437 65.833-6.559 93.371-27.857l.647-.507zM292.809 46.356c-42.006-15.844-89.877-16.367-134.449 2.142l.845 2.035c43.707-18.294 90.669-17.927 131.982-2.555l1.622-1.622z"/>
</svg>
