<svg xmlns="http://www.w3.org/2000/svg" width="144" height="19" fill="none" viewBox="0 0 144 19">
	<path fill="#8DCEAD" fill-rule="evenodd" d="M0 .567v16.49L15.995.566H0z" clip-rule="evenodd"/>
	<path fill="#005E65" fill-rule="evenodd" d="M1.427 18.564h15.991V2.078L1.427 18.564z" clip-rule="evenodd"/>
	<path fill="#000" fill-rule="evenodd" d="M29.78 6.304c0 1.864-1.063 2.85-3.073 2.85h-2.163V3.456h2.163c2.096 0 3.072.874 3.072 2.749v.099zM26.706.59H21.05v17.965h3.494v-6.711h2.235c4.081 0 6.422-2.02 6.422-5.54v-.099c0-3.568-2.367-5.615-6.494-5.615zM38.86 10.34h2.57c2.1 0 3.12.858 3.12 2.625v.099c0 1.76-1.01 2.652-3 2.652h-2.69v-5.377zm2.857-2.693H38.86V3.505h7.581V.59h-11.05v17.965h6.254c3.99 0 6.28-1.992 6.28-5.465v-.099c0-3.446-2.205-5.344-6.208-5.344zM56.55 9.167l7.216-8.6H59.93l-6.324 7.738V.59h-3.493v17.964h3.493v-7.952l6.347 7.952h4.161L56.55 9.167z" clip-rule="evenodd"/>
	<mask id="logo-rbc-a" width="16" height="19" x="65" y="0" maskUnits="userSpaceOnUse">
		<path fill="#fff" d="M80.846.29h-15.46v18.519h15.46V.289z"/>
	</mask>
	<g mask="url(#logo-rbc-a)">
		<path fill="#000" fill-rule="evenodd" d="M65.387 9.688v-.202c0-5.341 3.468-9.196 8.206-9.196 3.639 0 6.716 1.99 7.082 5.895h-2.1c-.44-2.746-1.978-4.157-4.958-4.157-3.615 0-6.032 2.898-6.032 7.433v.202c0 4.585 2.246 7.357 6.008 7.357 2.857 0 4.835-1.487 5.275-4.41h1.978c-.61 4.158-3.395 6.199-7.302 6.199-5.056 0-8.157-3.578-8.157-9.121z" clip-rule="evenodd"/>
	</g>
	<path fill="#000" fill-rule="evenodd" d="M87.66 2.356h-5.08V.566h12.285v1.79h-5.08v16.226H87.66V2.356zM97.77 18.582V.567h2.125v14.992L109.323.567h2.125v18.015h-2.125V3.59l-9.428 14.992h-2.124zM115.209 18.784c-.66 0-.953-.202-.953-.202v-2.117s.293.101.953.101c1.392 0 1.904-1.486 2.149-4.485.366-4.989.415-11.514.415-11.514h10.501v18.015h-2.124V2.406h-6.423c-.049 2.318-.171 6.4-.391 9.852-.195 3.426-1.075 6.526-4.127 6.526zM137.775 16.818c2.369 0 3.834-1.058 3.834-3.603v-.1c0-2.319-1.343-3.478-3.834-3.478h-2.98v7.181h2.98zM132.671.567h2.124v7.332h2.834c3.321 0 6.105 1.386 6.105 5.215v.101c0 3.754-2.76 5.367-6.105 5.367h-4.958V.567z" clip-rule="evenodd"/>
</svg>
