<svg xmlns="http://www.w3.org/2000/svg" width="15" height="11" fill="none" viewBox="0 0 15 11">
	<path fill="#fff" d="M11.841 10.573h-1.577v-.69h1.52c.946 0 1.692-.665 1.692-1.51V7.019h.774v1.407c0 1.176-1.09 2.148-2.409 2.148zM.25 8.425V7.018h.774v1.356c0 .844.746 1.508 1.692 1.508h1.52v.691H2.659c-1.32 0-2.409-.972-2.409-2.148zM2.659 0h1.577v.69h-1.52c-.946 0-1.692.666-1.692 1.51v1.355H.25V2.15C.25.972 1.34 0 2.659 0zM14.25 2.149v1.406h-.774V2.2c0-.844-.746-1.51-1.692-1.51h-1.52V0h1.577c1.32 0 2.409.972 2.409 2.149z"/>
	<circle cx="6.875" cy="5.352" r="1.875" stroke="#fff" stroke-width=".75"/>
</svg>
