<svg xmlns="http://www.w3.org/2000/svg" width="14" height="13" fill="none" viewBox="0 0 14 13">
	<path d="M12.62 3.054a4.2 4.2 0 0 1-1.283.381 2.4 2.4 0 0 0 .982-1.338c-.432.277-.91.479-1.418.587a2.155 2.155 0 0 0-1.63-.764c-1.234 0-2.234 1.083-2.234 2.419 0 .19.02.374.058.55-1.856-.1-3.502-1.063-4.603-2.526a2.56 2.56 0 0 0-.303 1.216c0 .839.394 1.58.994 2.013a2.096 2.096 0 0 1-1.012-.303v.03c0 1.173.77 2.15 1.791 2.372a2.075 2.075 0 0 1-1.008.042c.284.96 1.109 1.66 2.086 1.68a4.269 4.269 0 0 1-3.306 1A5.976 5.976 0 0 0 5.157 11.5c4.108 0 6.355-3.685 6.355-6.88 0-.106-.003-.21-.007-.314a4.76 4.76 0 0 0 1.115-1.252z" clip-rule="evenodd"/>
</svg>
