<svg xmlns="http://www.w3.org/2000/svg" width="15" height="10" fill="none" viewBox="0 0 15 10">
	<path d="M13.026 7.685a.906.906 0 0 0-.04-.081c-.204-.39-.593-.87-1.167-1.437l-.012-.013-.006-.006-.006-.007h-.006a7.293 7.293 0 0 1-.495-.533c-.126-.173-.155-.349-.086-.527.05-.134.233-.418.55-.851.167-.23.3-.414.397-.553.705-.996 1.01-1.633.917-1.91l-.037-.065c-.024-.04-.088-.075-.19-.108a.906.906 0 0 0-.39-.016l-1.76.013a.216.216 0 0 0-.122.003l-.079.02-.03.016-.025.02a.278.278 0 0 0-.067.068.456.456 0 0 0-.061.114 10.92 10.92 0 0 1-.654 1.462c-.15.269-.289.502-.415.699a3.332 3.332 0 0 1-.318.435 2.267 2.267 0 0 1-.232.225c-.07.056-.122.08-.159.071a4.05 4.05 0 0 1-.104-.026.422.422 0 0 1-.137-.16.748.748 0 0 1-.07-.253 2.99 2.99 0 0 1-.019-.575c.005-.134.007-.225.007-.273 0-.165.003-.344.009-.536.006-.193.01-.346.015-.459.004-.112.006-.231.006-.357 0-.126-.007-.224-.021-.296a1.064 1.064 0 0 0-.064-.208.345.345 0 0 0-.125-.156.682.682 0 0 0-.205-.088A3.83 3.83 0 0 0 7 1.253c-.757-.009-1.244.043-1.46.156a.83.83 0 0 0-.232.195c-.073.095-.083.147-.03.156.244.039.417.132.519.28l.036.077c.029.057.057.156.086.3.029.142.047.3.055.474.02.316.02.587 0 .812-.02.226-.04.401-.058.527a1.106 1.106 0 0 1-.156.448.108.108 0 0 1-.03.033.433.433 0 0 1-.165.032c-.057 0-.127-.03-.208-.09a1.504 1.504 0 0 1-.253-.25 3.358 3.358 0 0 1-.297-.446 7.973 7.973 0 0 1-.342-.676l-.098-.189a16.694 16.694 0 0 1-.25-.53c-.106-.231-.2-.456-.281-.672a.426.426 0 0 0-.147-.208l-.03-.02a.62.62 0 0 0-.238-.098l-1.674.014c-.171 0-.287.04-.348.123l-.025.04a.221.221 0 0 0-.018.103c0 .048.012.106.037.176.244.61.51 1.2.797 1.768.287.567.536 1.025.748 1.371.212.347.428.674.647.982.22.307.366.505.437.591.072.087.128.152.168.195l.153.156c.098.104.241.229.43.374.19.145.4.288.63.43.23.14.498.255.803.344.305.088.603.124.892.107H7.8a.473.473 0 0 0 .324-.143l.024-.033a.443.443 0 0 0 .046-.12.7.7 0 0 0 .022-.179 2.28 2.28 0 0 1 .04-.503c.03-.15.064-.262.103-.338a.834.834 0 0 1 .235-.286.393.393 0 0 1 .05-.023c.097-.035.212-.001.344.1.133.103.257.228.373.378.116.15.256.317.418.504.163.186.306.324.428.416l.122.078c.082.052.188.1.318.143.13.043.244.054.342.032l1.563-.026a.674.674 0 0 0 .36-.081c.086-.054.137-.114.154-.179a.536.536 0 0 0 .003-.221.857.857 0 0 0-.043-.172z" clip-rule="evenodd"/>
</svg>
